<?xml version="1.0" encoding="UTF-8" standalone="no"?>
<!-- Created with Inkscape (http://www.inkscape.org/) -->

<svg
   xmlns:dc="http://purl.org/dc/elements/1.1/"
   xmlns:cc="http://creativecommons.org/ns#"
   xmlns:rdf="http://www.w3.org/1999/02/22-rdf-syntax-ns#"
   xmlns:svg="http://www.w3.org/2000/svg"
   xmlns="http://www.w3.org/2000/svg"
   xmlns:sodipodi="http://sodipodi.sourceforge.net/DTD/sodipodi-0.dtd"
   xmlns:inkscape="http://www.inkscape.org/namespaces/inkscape"
   width="128"
   height="128"
   viewBox="0 0 33.866666 33.866667"
   version="1.1"
   id="svg8"
   inkscape:version="0.92.4 (unknown)"
   sodipodi:docname="simplegtd.svg">
  <defs
     id="defs2" />
  <sodipodi:namedview
     id="base"
     pagecolor="#ffffff"
     bordercolor="#666666"
     borderopacity="1.0"
     inkscape:pageopacity="0.0"
     inkscape:pageshadow="2"
     inkscape:zoom="1.979899"
     inkscape:cx="-20.313607"
     inkscape:cy="65.594594"
     inkscape:document-units="px"
     inkscape:current-layer="layer1"
     showgrid="false"
     units="px"
     scale-x="0.76458"
     inkscape:window-width="1403"
     inkscape:window-height="974"
     inkscape:window-x="463"
     inkscape:window-y="131"
     inkscape:window-maximized="0">
    <inkscape:grid
       type="xygrid"
       id="grid4518" />
  </sodipodi:namedview>
  <metadata
     id="metadata5">
    <rdf:RDF>
      <cc:Work
         rdf:about="">
        <dc:format>image/svg+xml</dc:format>
        <dc:type
           rdf:resource="http://purl.org/dc/dcmitype/StillImage" />
        <dc:title></dc:title>
      </cc:Work>
    </rdf:RDF>
  </metadata>
  <g
     inkscape:label="Layer 1"
     inkscape:groupmode="layer"
     id="layer1"
     transform="translate(0,-263.13332)">
    <path
       style="opacity:1;fill:#ff6600;fill-opacity:1;stroke-width:0.73648256"
       d="M 13.927734 0 C 6.2113056 0 0 6.2113056 0 13.927734 L 0 114.07227 C 1.1842379e-15 121.78869 6.2113056 128 13.927734 128 L 114.07227 128 C 121.78869 128 128 121.78869 128 114.07227 L 128 13.927734 C 128 6.2113056 121.78869 0 114.07227 0 L 13.927734 0 z M 20.787109 8.765625 L 107.21289 8.765625 C 113.87244 8.765625 119.23437 14.127563 119.23438 20.787109 L 119.23438 107.21289 C 119.23438 113.87244 113.87244 119.23438 107.21289 119.23438 L 20.787109 119.23438 C 14.127563 119.23438 8.765625 113.87244 8.765625 107.21289 L 8.765625 20.787109 C 8.765625 14.127563 14.127563 8.765625 20.787109 8.765625 z "
       transform="matrix(0.26458333,0,0,0.26458333,0,263.13332)"
       id="rect4579" />
    <g
       aria-label="@"
       style="font-style:normal;font-variant:normal;font-weight:normal;font-stretch:normal;font-size:26.68091583px;line-height:125%;font-family:Cantarell;-inkscape-font-specification:'Cantarell, Normal';font-variant-ligatures:normal;font-variant-caps:normal;font-variant-numeric:normal;font-feature-settings:normal;text-align:start;letter-spacing:0px;word-spacing:0px;writing-mode:lr-tb;text-anchor:start;opacity:0.11799999;fill:#000000;fill-opacity:1;stroke:none;stroke-width:0.66702288px;stroke-linecap:butt;stroke-linejoin:miter;stroke-opacity:1"
       id="text4591">
      <path
         d="m 15.847511,286.02093 c 1.440769,0 2.801496,-0.6937 3.815371,-1.65421 0.560299,0.96051 1.654216,1.46745 2.961581,1.46745 3.228391,0 5.362864,-3.01495 5.362864,-7.36393 0,-6.08325 -4.215584,-9.89862 -10.4856,-9.89862 -7.177166,0 -12.0064117,4.98933 -12.0064117,11.95305 0,6.83031 4.6157987,11.15262 11.1259417,11.15262 1.974388,0 3.735328,-0.40021 5.042693,-0.96051 l -0.480256,-1.60086 c -1.254003,0.50694 -2.854858,0.80043 -4.402351,0.80043 -5.549631,0 -9.31164,-3.84205 -9.31164,-9.57845 0,-5.8698 3.948776,-9.95198 9.791896,-9.95198 5.389545,0 8.778021,3.44184 8.778021,8.48453 0,3.0683 -1.254003,5.28282 -3.175029,5.28282 -0.800427,0 -1.440769,-0.45358 -1.440769,-1.38741 l 0.533618,-8.00427 h -1.787621 l -0.266809,1.04055 c -0.747066,-0.90715 -1.814302,-1.36072 -3.041625,-1.36072 -2.854858,0 -5.469587,2.48132 -5.469587,6.29669 0,3.17503 1.867664,5.28282 4.455713,5.28282 z m -2.134474,-5.57631 c 0,-2.42796 1.200642,-4.21558 3.068306,-4.21558 1.093917,0 2.187835,0.66702 2.774815,1.73426 l -0.320171,4.77588 c -0.58698,0.82711 -1.707579,1.44077 -2.774815,1.44077 -1.627536,0 -2.748135,-1.38741 -2.748135,-3.73533 z"
         style="font-style:normal;font-variant:normal;font-weight:normal;font-stretch:normal;font-size:26.68091583px;font-family:Cantarell;-inkscape-font-specification:'Cantarell, Normal';font-variant-ligatures:normal;font-variant-caps:normal;font-variant-numeric:normal;font-feature-settings:normal;text-align:start;writing-mode:lr-tb;text-anchor:start;fill:#000000;fill-opacity:1;stroke-width:0.66702288px"
         id="path4593" />
    </g>
    <g
       id="g4555"
       transform="matrix(2.1808733,0,0,2.1808733,2.9324673,-314.299)">
      <rect
         transform="rotate(-32.649908)"
         y="231.33488"
         x="-144.77228"
         height="5.2916665"
         width="1.3229166"
         id="rect4526"
         style="opacity:1;fill:#008000;stroke-width:0.26458332" />
      <rect
         transform="rotate(16.973992)"
         y="253.30777"
         x="86.01442"
         height="9.260417"
         width="1.3229166"
         id="rect4528"
         style="opacity:1;fill:#008000;stroke-width:0.26458332" />
    </g>
  </g>
</svg>
