<?xml version="1.0" encoding="UTF-8" standalone="no"?>
<!DOCTYPE svg PUBLIC "-//W3C//DTD SVG 1.1//EN"
 "http://www.w3.org/Graphics/SVG/1.1/DTD/svg11.dtd">
<!-- Generated by graphviz version 2.38.0 (20140413.2041)
 -->
<!-- Title: inheritance4c4472c4f5 Pages: 1 -->
<svg width="384pt" height="218pt"
 viewBox="0.00 0.00 384.07 218.00" xmlns="http://www.w3.org/2000/svg" xmlns:xlink="http://www.w3.org/1999/xlink">
<g id="graph0" class="graph" transform="scale(1 1) rotate(0) translate(4 214)">
<title>inheritance4c4472c4f5</title>
<polygon fill="white" stroke="none" points="-4,4 -4,-214 380.071,-214 380.071,4 -4,4"/>
<!-- COLines -->
<g id="node1" class="node"><title>COLines</title>
<g id="a_node1"><a xlink:href="../api/so_pysm_models.COLines.html#so_pysm_models.COLines" xlink:title="COLines" target="_top">
<polygon fill="none" stroke="black" stroke-width="0.5" points="237.248,-210 183.248,-210 183.248,-190 237.248,-190 237.248,-210"/>
<text text-anchor="middle" x="210.248" y="-197" font-family="Vera Sans, DejaVu Sans, Liberation Sans, Arial, Helvetica, sans" font-size="10.00">COLines</text>
</a>
</g>
</g>
<!-- Model -->
<g id="node2" class="node"><title>Model</title>
<g id="a_node2"><a xlink:title="This is the template object for PySM objects.">
<polygon fill="none" stroke="black" stroke-width="0.5" points="85.5445,-115 31.5445,-115 31.5445,-95 85.5445,-95 85.5445,-115"/>
<text text-anchor="middle" x="58.5445" y="-102" font-family="Vera Sans, DejaVu Sans, Liberation Sans, Arial, Helvetica, sans" font-size="10.00">Model</text>
</a>
</g>
</g>
<!-- Model&#45;&gt;COLines -->
<g id="edge1" class="edge"><title>Model&#45;&gt;COLines</title>
<path fill="none" stroke="black" stroke-width="0.5" d="M85.7369,-109.616C96.2785,-112.448 108.052,-116.94 117.089,-124 140.701,-142.446 129.545,-162.467 153.089,-181 160.391,-186.748 169.527,-190.804 178.295,-193.648"/>
<polygon fill="black" stroke="black" stroke-width="0.5" points="177.822,-195.333 183.115,-195.106 178.836,-191.983 177.822,-195.333"/>
</g>
<!-- GaussianDust -->
<g id="node3" class="node"><title>GaussianDust</title>
<g id="a_node3"><a xlink:href="../api/so_pysm_models.GaussianDust.html#so_pysm_models.GaussianDust" xlink:title="GaussianDust" target="_top">
<polygon fill="none" stroke="black" stroke-width="0.5" points="245.79,-172 174.706,-172 174.706,-152 245.79,-152 245.79,-172"/>
<text text-anchor="middle" x="210.248" y="-159" font-family="Vera Sans, DejaVu Sans, Liberation Sans, Arial, Helvetica, sans" font-size="10.00">GaussianDust</text>
</a>
</g>
</g>
<!-- Model&#45;&gt;GaussianDust -->
<g id="edge2" class="edge"><title>Model&#45;&gt;GaussianDust</title>
<path fill="none" stroke="black" stroke-width="0.5" d="M85.6657,-112.61C95.6358,-115.777 107.021,-119.716 117.089,-124 133.737,-131.083 136.468,-135.856 153.089,-143 159.042,-145.559 165.463,-148.008 171.762,-150.247"/>
<polygon fill="black" stroke="black" stroke-width="0.5" points="171.249,-151.921 176.546,-151.916 172.402,-148.616 171.249,-151.921"/>
</g>
<!-- GaussianSynchrotron -->
<g id="node4" class="node"><title>GaussianSynchrotron</title>
<g id="a_node4"><a xlink:href="../api/so_pysm_models.GaussianSynchrotron.html#so_pysm_models.GaussianSynchrotron" xlink:title="GaussianSynchrotron" target="_top">
<polygon fill="none" stroke="black" stroke-width="0.5" points="261.337,-134 159.159,-134 159.159,-114 261.337,-114 261.337,-134"/>
<text text-anchor="middle" x="210.248" y="-121" font-family="Vera Sans, DejaVu Sans, Liberation Sans, Arial, Helvetica, sans" font-size="10.00">GaussianSynchrotron</text>
</a>
</g>
</g>
<!-- Model&#45;&gt;GaussianSynchrotron -->
<g id="edge3" class="edge"><title>Model&#45;&gt;GaussianSynchrotron</title>
<path fill="none" stroke="black" stroke-width="0.5" d="M85.6209,-108.31C104.39,-110.692 130.407,-113.994 153.734,-116.954"/>
<polygon fill="black" stroke="black" stroke-width="0.5" points="153.795,-118.726 158.976,-117.62 154.236,-115.254 153.795,-118.726"/>
</g>
<!-- InterpolatingComponent -->
<g id="node5" class="node"><title>InterpolatingComponent</title>
<polygon fill="none" stroke="black" stroke-width="0.5" points="267.566,-96 152.93,-96 152.93,-76 267.566,-76 267.566,-96"/>
<text text-anchor="middle" x="210.248" y="-83" font-family="Vera Sans, DejaVu Sans, Liberation Sans, Arial, Helvetica, sans" font-size="10.00">InterpolatingComponent</text>
</g>
<!-- Model&#45;&gt;InterpolatingComponent -->
<g id="edge4" class="edge"><title>Model&#45;&gt;InterpolatingComponent</title>
<path fill="none" stroke="black" stroke-width="0.5" d="M85.6209,-101.69C102.76,-99.5152 125.943,-96.5729 147.602,-93.8239"/>
<polygon fill="black" stroke="black" stroke-width="0.5" points="148.038,-95.5327 152.778,-93.167 147.598,-92.0606 148.038,-95.5327"/>
</g>
<!-- PrecomputedAlms -->
<g id="node6" class="node"><title>PrecomputedAlms</title>
<g id="a_node6"><a xlink:href="../api/so_pysm_models.PrecomputedAlms.html#so_pysm_models.PrecomputedAlms" xlink:title="PrecomputedAlms" target="_top">
<polygon fill="none" stroke="black" stroke-width="0.5" points="255.678,-58 164.818,-58 164.818,-38 255.678,-38 255.678,-58"/>
<text text-anchor="middle" x="210.248" y="-45" font-family="Vera Sans, DejaVu Sans, Liberation Sans, Arial, Helvetica, sans" font-size="10.00">PrecomputedAlms</text>
</a>
</g>
</g>
<!-- Model&#45;&gt;PrecomputedAlms -->
<g id="edge5" class="edge"><title>Model&#45;&gt;PrecomputedAlms</title>
<path fill="none" stroke="black" stroke-width="0.5" d="M83.2292,-94.9226C102.049,-87.0261 129.101,-75.9209 153.089,-67 159.623,-64.5699 166.632,-62.0956 173.405,-59.7706"/>
<polygon fill="black" stroke="black" stroke-width="0.5" points="174.359,-61.2943 178.528,-58.025 173.23,-57.9814 174.359,-61.2943"/>
</g>
<!-- WebSkySZ -->
<g id="node10" class="node"><title>WebSkySZ</title>
<g id="a_node10"><a xlink:href="../api/so_pysm_models.WebSkySZ.html#so_pysm_models.WebSkySZ" xlink:title="WebSkySZ" target="_top">
<polygon fill="none" stroke="black" stroke-width="0.5" points="241.353,-20 179.143,-20 179.143,-0 241.353,-0 241.353,-20"/>
<text text-anchor="middle" x="210.248" y="-7" font-family="Vera Sans, DejaVu Sans, Liberation Sans, Arial, Helvetica, sans" font-size="10.00">WebSkySZ</text>
</a>
</g>
</g>
<!-- Model&#45;&gt;WebSkySZ -->
<g id="edge8" class="edge"><title>Model&#45;&gt;WebSkySZ</title>
<path fill="none" stroke="black" stroke-width="0.5" d="M69.5815,-94.7609C85.8023,-78.7255 119.38,-47.6024 153.089,-29 159.606,-25.4039 166.921,-22.3233 174.065,-19.7541"/>
<polygon fill="black" stroke="black" stroke-width="0.5" points="174.818,-21.3454 178.972,-18.057 173.674,-18.0377 174.818,-21.3454"/>
</g>
<!-- WebSkyCIB -->
<g id="node8" class="node"><title>WebSkyCIB</title>
<g id="a_node8"><a xlink:href="../api/so_pysm_models.WebSkyCIB.html#so_pysm_models.WebSkyCIB" xlink:title="PySM component interpolating between precomputed maps" target="_top">
<polygon fill="none" stroke="black" stroke-width="0.5" points="373.343,-96 306.135,-96 306.135,-76 373.343,-76 373.343,-96"/>
<text text-anchor="middle" x="339.739" y="-83" font-family="Vera Sans, DejaVu Sans, Liberation Sans, Arial, Helvetica, sans" font-size="10.00">WebSkyCIB</text>
</a>
</g>
</g>
<!-- InterpolatingComponent&#45;&gt;WebSkyCIB -->
<g id="edge6" class="edge"><title>InterpolatingComponent&#45;&gt;WebSkyCIB</title>
<path fill="none" stroke="black" stroke-width="0.5" d="M267.539,-86C278.889,-86 290.559,-86 301.082,-86"/>
<polygon fill="black" stroke="black" stroke-width="0.5" points="301.15,-87.7501 306.15,-86 301.15,-84.2501 301.15,-87.7501"/>
</g>
<!-- WebSkyCMB -->
<g id="node9" class="node"><title>WebSkyCMB</title>
<g id="a_node9"><a xlink:href="../api/so_pysm_models.WebSkyCMB.html#so_pysm_models.WebSkyCMB" xlink:title="WebSkyCMB" target="_top">
<polygon fill="none" stroke="black" stroke-width="0.5" points="375.904,-58 303.574,-58 303.574,-38 375.904,-38 375.904,-58"/>
<text text-anchor="middle" x="339.739" y="-45" font-family="Vera Sans, DejaVu Sans, Liberation Sans, Arial, Helvetica, sans" font-size="10.00">WebSkyCMB</text>
</a>
</g>
</g>
<!-- PrecomputedAlms&#45;&gt;WebSkyCMB -->
<g id="edge7" class="edge"><title>PrecomputedAlms&#45;&gt;WebSkyCMB</title>
<path fill="none" stroke="black" stroke-width="0.5" d="M255.48,-48C269.321,-48 284.521,-48 298.102,-48"/>
<polygon fill="black" stroke="black" stroke-width="0.5" points="298.417,-49.7501 303.417,-48 298.417,-46.2501 298.417,-49.7501"/>
</g>
<!-- UnsupportedPythonError -->
<g id="node7" class="node"><title>UnsupportedPythonError</title>
<g id="a_node7"><a xlink:href="../api/so_pysm_models.UnsupportedPythonError.html#so_pysm_models.UnsupportedPythonError" xlink:title="UnsupportedPythonError" target="_top">
<polygon fill="none" stroke="black" stroke-width="0.5" points="117.134,-153 -0.0445339,-153 -0.0445339,-133 117.134,-133 117.134,-153"/>
<text text-anchor="middle" x="58.5445" y="-140" font-family="Vera Sans, DejaVu Sans, Liberation Sans, Arial, Helvetica, sans" font-size="10.00">UnsupportedPythonError</text>
</a>
</g>
</g>
</g>
</svg>
